<svg width="150" height="150" viewBox="0 0 150 150" fill="none" xmlns="http://www.w3.org/2000/svg">
<rect x="1.5" y="1.5" width="147" height="147" rx="28.5" fill="#4ECCA3" stroke="#4ECCA3" stroke-width="3"/>
<path d="M103.125 79H104.125V78V60.9668C104.125 57.1205 107.276 53.9286 111.071 54.0012C114.772 54.0721 117.75 57.0945 117.75 60.8125V90.1795C117.75 92.9942 117.424 95.7995 116.78 98.5394L111.602 120.543C110.712 124.326 107.336 127 103.45 127H64.858C63.537 127 62.2348 126.688 61.0577 126.088C59.8805 125.489 58.8619 124.619 58.0849 123.551L33.5535 89.8195C33.5535 89.8195 33.5535 89.8195 33.5535 89.8195C31.3406 86.7765 32.0134 82.5159 35.056 80.3029C38.0992 78.0899 42.3597 78.7628 44.5725 81.8056L50.7537 90.3054L52.5625 92.7926V89.7172V43.625C52.5625 39.907 55.541 36.8846 59.2416 36.8137C63.0369 36.7411 66.1875 39.933 66.1875 43.7793V78V79H67.1875H68.75H69.75V78V35.8125C69.75 32.0945 72.7285 29.0721 76.4291 29.0012C80.2244 28.9286 83.375 32.1205 83.375 35.9668V78V79H84.375H85.9375H86.9375V78V43.4297C86.9375 39.7117 89.916 36.6893 93.6166 36.6184C97.4119 36.5458 100.563 39.7377 100.563 43.584V78V79H101.563H103.125Z" stroke="white" stroke-width="2"/>
</svg>
