<svg width="150" height="150" viewBox="0 0 150 150" fill="none" xmlns="http://www.w3.org/2000/svg">
<rect width="150" height="150" rx="30" fill="#4ECCA3"/>
<path d="M106.25 50.7511H107.25V49.7511C107.25 45.0756 111.07 41.3061 115.766 41.376C120.333 41.4456 124 45.2935 124 49.9073V75.9815C124 78.3516 123.537 80.699 122.614 82.8765L122.614 82.8784L113.043 105.593L113.041 105.598C112.035 108.021 111.5 110.632 111.5 113.267V113.833C111.5 115.878 109.858 117.521 107.812 117.521H60.9375C58.8921 117.521 57.25 115.878 57.25 113.833V112.525C57.25 109.562 55.9751 106.733 53.7712 104.767L53.7699 104.765L31.955 85.3723C31.9548 85.3721 31.9547 85.3719 31.9545 85.3718C28.1629 81.9868 26 77.1605 26 72.0948V59.1261C26 54.4512 29.8187 50.6822 34.5144 50.7509C39.0869 50.839 42.75 54.6726 42.75 59.2823V68.6768V69.1264L43.0862 69.4248L44.6487 70.8115L46.3125 72.2881V70.0636V43.5011C46.3125 38.8263 50.1311 35.0572 54.8268 35.1259C59.3993 35.214 63.0625 39.0475 63.0625 43.6573V49.7511V50.7511H64.0625H65.625H66.625V49.7511V40.3761C66.625 35.7013 70.4436 31.9322 75.1393 32.0009C79.7118 32.089 83.375 35.9225 83.375 40.5323V49.7511V50.7511H84.375H85.9375H86.9375V49.7511V43.5011C86.9375 38.8263 90.7561 35.0572 95.4518 35.1259C100.024 35.214 103.688 39.0475 103.688 43.6573V49.7511V50.7511H104.688H106.25Z" stroke="white" stroke-width="2"/>
</svg>
