<svg width="150" height="150" viewBox="0 0 150 150" fill="none" xmlns="http://www.w3.org/2000/svg">
<rect x="1.5" y="1.5" width="147" height="147" rx="28.5" fill="#4ECCA3" stroke="#4ECCA3" stroke-width="3"/>
<path d="M75 103.875H76V102.875V101.313V100.313H75H68.75C64.9876 100.313 61.9375 97.2627 61.9375 93.5002C61.9375 89.7376 64.9876 86.6877 68.75 86.6877H75H76V85.6877V84.1252V83.1252H75H34.375C29.7496 83.1252 26 79.3756 26 74.7502C26 70.1247 29.7496 66.3752 34.375 66.3752H75H76V65.3752V62.7244V62.0428L75.3656 61.7936L40.6877 48.1725C40.6877 48.1725 40.6877 48.1725 40.6877 48.1725C36.3826 46.4811 34.2638 41.6199 35.955 37.315L35.955 37.315C37.6462 33.01 42.5073 30.8912 46.8125 32.5825L46.8125 32.5825L83.9887 47.185L84.6747 47.4545L85.1352 46.8789L89.993 40.8067C92.0889 38.1871 95.7799 37.4831 98.6927 39.1477L99.1856 38.2852L98.6927 39.1477L120.568 51.6477C120.568 51.6477 120.568 51.6477 120.568 51.6477C121.61 52.2436 122.477 53.1046 123.08 54.1433C123.683 55.182 124 56.3617 124 57.5627V104.438C124 107.599 121.825 110.345 118.748 111.069L118.965 111.994L118.748 111.069L92.1854 117.319L92.4145 118.293L92.1854 117.319C91.674 117.439 91.1504 117.5 90.6251 117.5H75C71.2376 117.5 68.1875 114.45 68.1875 110.688C68.1875 106.925 71.2376 103.875 75 103.875Z" stroke="white" stroke-width="2"/>
</svg>
